<?xml version="1.0" standalone="no"?><!DOCTYPE svg PUBLIC "-//W3C//DTD SVG 1.1//EN" "http://www.w3.org/Graphics/SVG/1.1/DTD/svg11.dtd"><svg height="1000" node-id="1" sillyvg="true" template-height="1000" template-width="1000" version="1.1" viewBox="0 0 1000 1000" width="1000" xmlns="http://www.w3.org/2000/svg" xmlns:xlink="http://www.w3.org/1999/xlink"><defs node-id="140"><clipPath id="XMLID_2_" node-id="7"><path d="M 211.70 242.00 L 203.30 246.10 L 189.90 254.10 L 181.60 259.80 L 170.10 268.90 L 158.00 280.10 L 152.10 286.50 L 146.20 293.60 L 140.70 301.00 L 135.50 309.10 L 130.60 317.80 L 127.30 324.60 L 124.30 331.70 L 121.60 339.30 L 119.30 347.30 L 117.40 355.30 L 115.90 363.70 L 114.90 372.70 L 114.40 382.20 L 114.40 391.50 L 115.00 401.30 L 116.30 411.70 L 118.20 422.80 L 122.50 440.10 L 128.90 459.10 L 132.90 469.30 L 142.00 489.00 L 153.70 510.60 L 160.70 522.10 L 175.40 544.30 L 193.40 568.50 L 203.80 581.40 L 210.90 589.10 L 217.70 595.40 L 229.30 604.90 L 237.50 610.90 L 256.00 623.20 L 268.00 630.40 L 280.30 637.20 L 294.40 644.50 L 310.80 652.40 L 327.40 659.70 L 346.20 667.50 L 367.40 675.60 L 383.30 681.20 L 419.20 692.70 L 439.50 698.70 L 480.80 709.50 L 528.60 720.30 L 541.70 719.60 L 563.90 717.30 L 588.70 713.30 L 611.80 708.40 L 636.40 701.70 L 649.70 697.50 L 662.80 692.80 L 676.30 687.50 L 690.20 681.40 L 710.60 671.20 L 720.90 665.40 L 731.20 659.20 L 741.20 652.60 L 751.10 645.50 L 760.90 637.90 L 770.50 629.70 L 779.80 621.20 L 788.80 612.10 L 797.60 602.40 L 806.10 592.10 L 812.50 583.70 L 818.60 574.80 L 824.60 565.40 L 830.30 555.60 L 835.70 545.30 L 840.70 535.00 L 845.30 524.10 L 849.70 512.80 L 853.70 500.80 L 857.40 488.30 L 860.50 475.90 L 863.20 463.00 L 865.50 449.40 L 867.40 435.10 L 868.80 420.10 L 869.90 403.50 L 870.40 388.00 L 870.40 373.40 L 870.00 359.90 L 869.20 347.10 L 867.80 333.90 L 866.10 321.50 L 864.00 310.00 L 861.70 299.20 L 859.00 289.30 L 855.70 279.00 L 852.20 269.50 L 848.40 260.60 L 844.40 252.40 L 840.20 244.90 L 835.40 237.30 L 830.50 230.30 L 825.40 223.90 L 820.10 218.00 L 814.70 212.50 L 808.90 207.30 L 802.90 202.60 L 796.90 198.20 L 790.70 194.30 L 784.40 190.80 L 776.20 186.80 L 768.00 183.30 L 759.60 180.40 L 751.20 178.00 L 742.60 176.10 L 734.00 174.60 L 725.50 173.50 L 717.00 172.90 L 705.60 172.60 L 694.50 173.00 L 683.70 173.90 L 672.90 175.30 L 662.80 177.20 L 653.20 179.40 L 643.70 182.10 L 635.10 185.00 L 627.40 188.10 L 619.80 191.60 L 613.40 195.10 L 594.70 206.90 L 586.30 211.50 L 568.40 220.10 L 547.50 228.50 L 524.40 236.00 L 512.40 239.40 L 499.90 242.30 L 486.80 245.00 L 473.70 247.10 L 460.20 248.80 L 446.40 249.90 L 436.00 250.40 L 415.00 250.30 L 404.30 249.70 L 393.70 248.70 L 383.10 247.20 L 372.40 245.30 L 361.80 242.90 L 351.20 240.10 L 340.80 236.70 L 330.40 232.80 L 317.20 226.90 L 308.60 224.10 L 299.90 222.50 L 288.10 221.80 L 281.20 222.10 L 273.10 222.80 L 265.20 224.00 L 256.10 226.00 L 245.80 228.80 L 238.30 231.10 L 221.40 237.70 L 211.70 242.00 Z" fill="#000000" fill-rule="nonzero" node-id="143" stroke="none" target-height="547.69995" target-width="756" target-x="114.4" target-y="172.6"></path></clipPath><clipPath id="XMLID_3_" node-id="23"><path d="M 451.40 598.20 L 149.70 598.20 L 147.90 598.00 L 146.20 597.30 L 144.80 596.20 L 143.70 594.80 L 143.00 593.10 L 142.80 591.30 L 142.80 547.60 L 143.00 545.70 L 143.70 544.10 L 144.80 542.70 L 146.20 541.60 L 147.90 540.90 L 149.70 540.60 L 451.40 540.60 L 453.20 540.90 L 454.90 541.60 L 456.30 542.70 L 457.40 544.10 L 458.10 545.70 L 458.40 547.60 L 458.40 591.30 L 458.10 593.10 L 457.40 594.80 L 456.30 596.20 L 454.90 597.30 L 453.20 598.00 L 451.40 598.20 Z" fill="#000000" fill-rule="nonzero" node-id="147" stroke="none" target-height="57.600037" target-width="315.59998" target-x="142.8" target-y="540.6"></path></clipPath><clipPath id="SVGID_1_" node-id="41"><path d="M 303.10 743.40 L 303.10 734.90 L 297.80 734.10 L 293.80 732.90 L 289.50 731.30 L 280.70 726.80 L 273.00 721.20 L 269.20 717.80 L 265.40 713.80 L 261.50 709.00 L 344.60 709.00 L 341.60 743.20 L 303.10 743.40 Z" fill="#000000" fill-rule="nonzero" node-id="151" stroke="none" target-height="34.400024" target-width="83.100006" target-x="261.5" target-y="709"></path></clipPath><clipPath id="SVGID_2_" node-id="59"><path d="M 287.30 459.10 L 270.10 674.10 L 312.10 674.20 L 333.60 475.80 L 348.60 674.10 L 400.30 674.10 L 376.70 459.10 Z" fill="#000000" fill-rule="nonzero" node-id="155" stroke="none" target-height="215.1" target-width="130.19998" target-x="270.1" target-y="459.1"></path></clipPath><clipPath id="SVGID_3_" node-id="68"><path d="M 387.40 743.40 L 386.20 734.90 L 381.00 734.10 L 377.00 732.90 L 372.60 731.30 L 363.80 726.80 L 356.10 721.20 L 352.40 717.80 L 348.60 713.80 L 344.60 709.00 L 427.80 709.00 L 427.80 743.10 L 387.40 743.40 Z" fill="#000000" fill-rule="nonzero" node-id="159" stroke="none" target-height="34.400024" target-width="83.19998" target-x="344.6" target-y="709"></path></clipPath><clipPath id="XMLID_4_" node-id="83"><path d="M 738.90 473.00 L 742.40 462.80 L 744.50 458.10 L 750.80 446.50 L 755.00 440.20 L 761.60 432.10 L 765.50 428.00 L 769.70 424.20 L 774.30 420.60 L 779.40 417.10 L 782.80 418.40 L 785.20 419.90 L 788.50 423.00 L 791.80 427.90 L 794.80 435.20 L 795.80 439.30 L 796.70 444.40 L 797.20 450.60 L 797.30 456.80 L 797.00 464.20 L 796.10 473.00 L 798.40 463.90 L 802.00 455.30 L 804.60 450.70 L 807.80 446.30 L 810.20 443.50 L 813.00 441.00 L 816.10 438.70 L 819.40 436.80 L 823.20 435.40 L 827.40 434.40 L 834.10 434.00 L 842.10 435.10 L 839.10 438.90 L 834.90 445.70 L 832.60 450.30 L 830.50 455.30 L 827.80 465.30 L 826.80 474.50 L 832.10 476.50 L 839.70 480.70 L 843.80 483.80 L 846.30 486.20 L 850.90 492.00 L 852.70 495.40 L 854.10 499.20 L 855.00 503.50 L 855.20 510.30 L 853.70 518.60 L 864.80 510.20 L 873.60 505.00 L 878.30 502.70 L 883.10 500.90 L 887.80 499.70 L 882.30 512.40 L 879.10 522.30 L 877.80 527.50 L 876.90 532.80 L 876.60 537.90 L 876.70 541.20 L 877.90 547.10 L 882.20 544.60 L 885.60 543.00 L 889.40 541.70 L 897.50 539.90 L 905.10 539.60 L 909.00 540.00 L 913.20 540.80 L 917.70 542.10 L 908.60 552.90 L 902.90 561.60 L 900.50 566.30 L 899.10 569.60 L 897.30 576.20 L 896.90 579.50 L 897.00 582.60 L 897.60 585.70 L 908.20 582.30 L 913.10 581.10 L 922.60 579.90 L 930.50 580.00 L 934.40 580.60 L 938.10 581.60 L 941.60 583.10 L 937.40 586.50 L 930.90 593.30 L 926.90 598.40 L 923.00 604.00 L 918.80 611.10 L 916.20 616.10 L 911.30 628.20 L 915.80 630.40 L 919.30 633.00 L 924.40 638.10 L 930.50 646.20 L 937.00 658.10 L 933.40 659.90 L 926.50 662.10 L 921.40 663.10 L 915.90 663.60 L 909.00 663.80 L 914.00 666.40 L 921.20 671.40 L 927.70 677.90 L 932.40 684.60 L 934.30 688.40 L 935.80 692.60 L 937.00 697.30 L 937.80 704.70 L 937.60 708.90 L 937.10 713.50 L 722.20 713.50 L 738.90 473.00 Z" fill="#000000" fill-rule="nonzero" node-id="163" stroke="none" target-height="296.4" target-width="219.39996" target-x="722.2" target-y="417.1"></path></clipPath><clipPath id="SVGID_4_" node-id="91"><path d="M 496.30 461.30 L 492.80 461.90 L 489.70 463.70 L 487.50 466.40 L 486.70 467.90 L 486.10 471.50 L 486.20 683.70 L 487.10 693.80 L 488.80 702.10 L 491.30 708.20 L 494.10 711.70 L 495.80 712.80 L 497.80 713.40 L 500.00 713.50 L 804.40 713.50 L 804.40 471.50 L 803.80 467.90 L 803.00 466.40 L 800.80 463.70 L 797.80 461.90 L 794.20 461.30 L 496.30 461.30 Z" fill="#000000" fill-rule="nonzero" node-id="167" stroke="none" target-height="252.20001" target-width="318.30002" target-x="486.1" target-y="461.3"></path></clipPath><clipPath id="XMLID_5_" node-id="115"><path d="M 884.30 361.80 L 658.30 361.80 L 711.90 325.40 L 711.90 231.10 L 712.20 228.80 L 713.10 226.80 L 714.40 225.10 L 716.10 223.80 L 718.10 223.00 L 720.30 222.70 L 884.30 222.70 L 886.60 223.00 L 888.60 223.80 L 890.30 225.10 L 891.60 226.80 L 892.40 228.80 L 892.70 231.10 L 892.70 353.50 L 892.40 355.70 L 891.60 357.70 L 890.30 359.40 L 888.60 360.70 L 886.60 361.50 L 884.30 361.80 Z" fill="#000000" fill-rule="nonzero" node-id="171" stroke="none" target-height="139.09999" target-width="234.40002" target-x="658.3" target-y="222.7"></path></clipPath></defs><g node-id="458"><g node-id="464"><path d="M 211.70 242.00 L 203.30 246.10 L 189.90 254.10 L 181.60 259.80 L 170.10 268.90 L 158.00 280.10 L 152.10 286.50 L 146.20 293.60 L 140.70 301.00 L 135.50 309.10 L 130.60 317.80 L 127.30 324.60 L 124.30 331.70 L 121.60 339.30 L 119.30 347.30 L 117.40 355.30 L 115.90 363.70 L 114.90 372.70 L 114.40 382.20 L 114.40 391.50 L 115.00 401.30 L 116.30 411.70 L 118.20 422.80 L 122.50 440.10 L 128.90 459.10 L 132.90 469.30 L 142.00 489.00 L 153.70 510.60 L 160.70 522.10 L 175.40 544.30 L 193.40 568.50 L 203.80 581.40 L 210.90 589.10 L 217.70 595.40 L 229.30 604.90 L 237.50 610.90 L 256.00 623.20 L 268.00 630.40 L 280.30 637.20 L 294.40 644.50 L 310.80 652.40 L 327.40 659.70 L 346.20 667.50 L 367.40 675.60 L 383.30 681.20 L 419.20 692.70 L 439.50 698.70 L 480.80 709.50 L 528.60 720.30 L 541.70 719.60 L 563.90 717.30 L 588.70 713.30 L 611.80 708.40 L 636.40 701.70 L 649.70 697.50 L 662.80 692.80 L 676.30 687.50 L 690.20 681.40 L 710.60 671.20 L 720.90 665.40 L 731.20 659.20 L 741.20 652.60 L 751.10 645.50 L 760.90 637.90 L 770.50 629.70 L 779.80 621.20 L 788.80 612.10 L 797.60 602.40 L 806.10 592.10 L 812.50 583.70 L 818.60 574.80 L 824.60 565.40 L 830.30 555.60 L 835.70 545.30 L 840.70 535.00 L 845.30 524.10 L 849.70 512.80 L 853.70 500.80 L 857.40 488.30 L 860.50 475.90 L 863.20 463.00 L 865.50 449.40 L 867.40 435.10 L 868.80 420.10 L 869.90 403.50 L 870.40 388.00 L 870.40 373.40 L 870.00 359.90 L 869.20 347.10 L 867.80 333.90 L 866.10 321.50 L 864.00 310.00 L 861.70 299.20 L 859.00 289.30 L 855.70 279.00 L 852.20 269.50 L 848.40 260.60 L 844.40 252.40 L 840.20 244.90 L 835.40 237.30 L 830.50 230.30 L 825.40 223.90 L 820.10 218.00 L 814.70 212.50 L 808.90 207.30 L 802.90 202.60 L 796.90 198.20 L 790.70 194.30 L 784.40 190.80 L 776.20 186.80 L 768.00 183.30 L 759.60 180.40 L 751.20 178.00 L 742.60 176.10 L 734.00 174.60 L 725.50 173.50 L 717.00 172.90 L 705.60 172.60 L 694.50 173.00 L 683.70 173.90 L 672.90 175.30 L 662.80 177.20 L 653.20 179.40 L 643.70 182.10 L 635.10 185.00 L 627.40 188.10 L 619.80 191.60 L 613.40 195.10 L 594.70 206.90 L 586.30 211.50 L 568.40 220.10 L 547.50 228.50 L 524.40 236.00 L 512.40 239.40 L 499.90 242.30 L 486.80 245.00 L 473.70 247.10 L 460.20 248.80 L 446.40 249.90 L 436.00 250.40 L 415.00 250.30 L 404.30 249.70 L 393.70 248.70 L 383.10 247.20 L 372.40 245.30 L 361.80 242.90 L 351.20 240.10 L 340.80 236.70 L 330.40 232.80 L 317.20 226.90 L 308.60 224.10 L 299.90 222.50 L 288.10 221.80 L 281.20 222.10 L 273.10 222.80 L 265.20 224.00 L 256.10 226.00 L 245.80 228.80 L 238.30 231.10 L 221.40 237.70 L 211.70 242.00 Z" fill="#ffebe5" fill-rule="nonzero" group-id="1,7" node-id="181" stroke="none" target-height="547.69995" target-width="756" target-x="114.4" target-y="172.6"></path></g><g node-id="465"><g clip-path="url(#XMLID_2_)" group-id="1,8" node-id="184"><path d="M 73.10 545.50 L 73.10 544.50 L 72.10 544.40 L 74.50 528.00 L 78.80 507.90 L 82.20 495.80 L 87.80 479.00 L 91.30 469.90 L 95.20 460.90 L 99.60 451.90 L 104.60 442.70 L 110.10 433.90 L 116.10 425.20 L 122.80 416.60 L 128.20 410.50 L 133.90 404.70 L 140.00 399.10 L 146.60 393.70 L 153.80 388.50 L 161.20 383.90 L 168.80 379.80 L 176.70 376.20 L 184.90 373.10 L 193.40 370.40 L 202.10 368.30 L 210.80 366.80 L 219.80 365.70 L 229.00 365.10 L 238.60 365.00 L 248.60 365.40 L 259.00 366.30 L 280.40 369.30 L 290.70 370.30 L 300.70 370.70 L 310.20 370.60 L 319.90 370.00 L 329.20 369.00 L 338.10 367.70 L 346.80 365.90 L 355.40 363.70 L 371.70 358.50 L 379.30 355.50 L 389.40 351.00 L 398.90 346.20 L 407.80 341.10 L 416.60 335.60 L 424.70 330.10 L 432.20 324.40 L 446.20 312.60 L 460.90 298.30 L 468.00 290.60 L 476.10 281.00 L 483.60 271.40 L 490.50 261.70 L 497.00 251.80 L 502.90 242.20 L 508.20 232.70 L 513.20 223.00 L 521.20 204.90 L 524.50 195.90 L 529.40 179.90 L 531.20 172.00 L 532.40 165.10 L 533.00 159.10 L 533.10 153.00 L 532.70 148.10 L 531.90 144.10 L 533.80 143.60 L 535.00 150.50 L 535.00 159.70 L 534.30 166.10 L 533.10 173.20 L 531.20 181.20 L 526.10 197.50 L 522.70 206.50 L 518.50 216.40 L 513.80 226.30 L 508.50 236.30 L 502.90 246.10 L 496.90 255.70 L 490.50 265.20 L 483.80 274.40 L 476.80 283.30 L 469.50 291.90 L 461.80 300.30 L 453.90 308.30 L 445.90 315.80 L 437.70 322.70 L 429.50 329.20 L 420.80 335.40 L 412.10 341.20 L 403.20 346.40 L 394.20 351.20 L 385.10 355.50 L 375.80 359.30 L 366.60 362.60 L 357.20 365.50 L 347.80 367.90 L 338.30 369.80 L 328.70 371.20 L 319.10 372.10 L 309.40 372.60 L 299.60 372.70 L 289.60 372.20 L 279.60 371.30 L 258.80 368.30 L 248.50 367.40 L 238.70 367.00 L 229.20 367.10 L 220.00 367.70 L 211.20 368.70 L 202.60 370.30 L 194.00 372.40 L 185.60 374.90 L 177.60 378.00 L 169.80 381.60 L 162.20 385.60 L 154.90 390.20 L 147.80 395.30 L 141.30 400.60 L 135.30 406.10 L 129.60 411.90 L 124.30 418.00 L 117.70 426.40 L 111.70 435.00 L 106.30 443.90 L 101.30 452.90 L 97.00 461.90 L 93.10 470.70 L 86.60 488.30 L 80.70 508.40 L 76.40 528.30 L 74.10 544.40 L 73.70 545.30 L 73.10 545.50 Z" fill="#ffffff" fill-rule="nonzero" group-id="1,8" node-id="186" stroke="none" target-height="401.9" target-width="462.9" target-x="72.1" target-y="143.6"></path></g></g><g node-id="466"><g clip-path="url(#XMLID_2_)" group-id="1,9" node-id="189"><path d="M 184.40 670.50 L 182.50 670.20 L 184.50 659.30 L 188.80 641.20 L 192.20 629.50 L 196.20 617.10 L 201.40 603.00 L 209.60 583.60 L 219.90 562.80 L 225.90 552.30 L 232.40 541.50 L 239.90 530.40 L 247.70 519.80 L 255.70 509.70 L 264.10 500.20 L 272.80 491.10 L 281.90 482.50 L 291.40 474.30 L 301.10 466.60 L 311.20 459.40 L 321.60 452.80 L 332.70 446.40 L 344.10 440.50 L 356.00 435.20 L 368.10 430.40 L 380.70 426.20 L 393.70 422.40 L 406.60 419.40 L 419.90 416.80 L 433.50 414.80 L 447.60 413.30 L 462.20 412.40 L 491.10 411.70 L 504.20 410.90 L 516.40 409.60 L 527.70 407.90 L 538.40 405.70 L 548.30 403.20 L 557.50 400.30 L 566.10 397.00 L 574.20 393.40 L 581.70 389.50 L 588.60 385.20 L 595.00 380.60 L 601.00 375.70 L 606.50 370.50 L 611.50 365.00 L 616.10 359.10 L 620.30 352.90 L 623.80 346.80 L 626.90 340.60 L 629.50 334.20 L 631.80 327.70 L 634.30 318.90 L 636.10 309.90 L 637.40 300.80 L 638.20 291.70 L 638.60 282.60 L 638.50 273.50 L 638.00 264.50 L 636.20 247.20 L 634.10 234.70 L 631.80 223.30 L 628.80 211.30 L 625.70 200.30 L 619.20 180.50 L 613.30 165.00 L 607.20 151.10 L 609.00 150.20 L 615.10 164.20 L 621.10 179.80 L 627.60 199.70 L 630.70 210.70 L 633.70 222.80 L 636.10 234.30 L 639.20 255.60 L 640.50 273.60 L 640.60 282.70 L 640.20 291.90 L 639.40 301.20 L 638.10 310.40 L 636.20 319.50 L 633.70 328.40 L 631.40 335.00 L 628.70 341.50 L 625.60 347.80 L 622.00 353.90 L 617.70 360.30 L 613.10 366.30 L 607.90 371.90 L 602.40 377.20 L 596.40 382.10 L 589.90 386.80 L 582.80 391.10 L 575.30 395.10 L 567.10 398.80 L 558.40 402.10 L 549.10 405.00 L 539.00 407.60 L 528.30 409.80 L 516.80 411.60 L 504.40 412.90 L 491.20 413.70 L 463.60 414.40 L 450.80 415.10 L 438.50 416.20 L 426.70 417.80 L 415.50 419.70 L 404.10 422.10 L 393.10 424.80 L 382.70 427.80 L 372.80 431.00 L 363.30 434.60 L 351.40 439.60 L 340.20 445.00 L 329.60 450.60 L 319.70 456.60 L 310.00 463.00 L 300.80 469.70 L 292.20 476.40 L 284.20 483.40 L 276.30 490.70 L 269.00 498.10 L 255.90 512.80 L 247.80 523.00 L 240.60 532.90 L 234.20 542.50 L 227.60 553.20 L 221.70 563.70 L 216.40 573.90 L 207.10 594.20 L 198.10 617.70 L 194.10 630.00 L 190.80 641.70 L 186.50 659.60 L 184.40 670.50 Z" fill="#ffffff" fill-rule="nonzero" group-id="1,9" node-id="191" stroke="none" target-height="520.3" target-width="458.09998" target-x="182.5" target-y="150.2"></path></g></g><g node-id="467"><g clip-path="url(#XMLID_2_)" group-id="1,10" node-id="194"><path d="M 906.30 454.10 L 890.40 445.90 L 875.40 437.70 L 861.10 429.50 L 847.60 421.20 L 834.80 412.90 L 822.70 404.50 L 810.30 395.40 L 798.70 386.40 L 787.90 377.30 L 777.80 368.20 L 768.40 359.20 L 759.70 350.10 L 751.10 340.40 L 743.20 330.70 L 736.00 321.00 L 729.40 311.30 L 723.50 301.60 L 718.00 291.40 L 713.10 281.20 L 708.80 271.00 L 705.20 260.80 L 702.20 250.50 L 699.80 240.10 L 698.00 230.10 L 696.90 220.60 L 696.30 211.00 L 696.10 202.00 L 696.40 193.40 L 697.10 184.90 L 699.20 169.80 L 701.50 159.20 L 703.90 150.40 L 706.80 141.30 L 709.70 133.70 L 715.30 121.10 L 721.40 110.30 L 723.00 111.50 L 717.10 122.10 L 711.50 134.50 L 708.60 142.10 L 705.70 151.00 L 703.40 159.80 L 701.20 170.20 L 699.10 185.20 L 698.10 202.00 L 698.30 211.00 L 698.90 220.50 L 700.00 229.90 L 701.80 239.70 L 704.20 250.10 L 707.10 260.10 L 710.60 270.10 L 714.70 280.00 L 719.40 289.90 L 724.60 299.70 L 730.50 309.50 L 737.10 319.30 L 744.30 329.10 L 752.20 338.90 L 760.90 348.60 L 770.30 358.40 L 780.10 367.80 L 790.70 377.20 L 802.10 386.60 L 814.30 396.10 L 827.40 405.50 L 841.40 414.80 L 856.30 424.20 L 872.20 433.60 L 889.20 443.00 L 907.20 452.30 L 906.30 454.10 Z" fill="#ffffff" fill-rule="nonzero" group-id="1,10" node-id="196" stroke="none" target-height="343.8" target-width="211.10004" target-x="696.1" target-y="110.3"></path></g></g><g node-id="468"><g clip-path="url(#XMLID_2_)" group-id="1,11" node-id="199"><path d="M 302.70 798.60 L 294.10 798.40 L 283.30 797.40 L 283.70 795.40 L 292.30 796.30 L 306.70 796.60 L 316.40 796.10 L 326.60 795.20 L 338.50 793.40 L 355.20 789.80 L 364.50 787.20 L 373.60 784.20 L 383.10 780.60 L 393.10 776.30 L 402.10 771.90 L 411.70 766.60 L 421.80 760.40 L 429.10 755.50 L 444.40 743.90 L 452.40 737.10 L 460.00 730.10 L 467.60 722.50 L 475.50 714.10 L 483.40 704.80 L 490.80 695.50 L 498.30 685.40 L 505.90 674.30 L 513.40 662.30 L 520.40 650.30 L 527.40 637.20 L 534.30 623.10 L 541.10 607.90 L 547.30 592.80 L 553.30 576.60 L 559.20 559.10 L 568.90 527.50 L 573.10 515.60 L 577.40 504.50 L 581.90 494.30 L 586.60 484.70 L 591.50 475.90 L 596.50 467.80 L 601.70 460.20 L 607.00 453.30 L 613.10 446.20 L 619.50 439.80 L 626.00 434.10 L 632.70 428.90 L 639.60 424.40 L 646.70 420.40 L 654.00 417.10 L 661.60 414.20 L 669.40 411.90 L 677.10 410.30 L 685.00 409.10 L 693.20 408.50 L 701.70 408.30 L 710.50 408.70 L 719.10 409.60 L 728.00 411.00 L 737.20 413.00 L 746.80 415.50 L 756.70 418.60 L 776.10 426.00 L 786.30 430.50 L 796.90 435.70 L 817.50 447.00 L 828.30 453.50 L 839.40 460.70 L 853.90 470.70 L 867.20 480.50 L 879.90 490.40 L 901.00 508.00 L 909.10 515.20 L 925.30 530.50 L 923.80 531.90 L 907.70 516.70 L 899.70 509.50 L 878.60 491.90 L 866.00 482.10 L 852.70 472.30 L 838.20 462.30 L 826.60 454.90 L 814.00 447.30 L 800.90 440.10 L 787.20 433.20 L 777.80 428.90 L 758.50 421.40 L 748.70 418.20 L 738.80 415.50 L 728.90 413.30 L 718.90 411.70 L 708.90 410.70 L 699.10 410.30 L 691.70 410.60 L 684.40 411.20 L 677.10 412.30 L 669.90 413.90 L 662.20 416.10 L 654.80 418.90 L 647.50 422.30 L 640.50 426.20 L 633.80 430.60 L 627.10 435.70 L 620.70 441.40 L 614.50 447.70 L 608.40 454.80 L 602.50 462.50 L 596.80 471.00 L 591.30 480.30 L 586.00 490.50 L 580.80 501.50 L 575.90 513.60 L 571.30 526.70 L 561.80 557.70 L 556.50 573.80 L 550.90 589.20 L 545.00 603.90 L 538.90 618.00 L 532.60 631.40 L 525.60 645.10 L 518.40 658.10 L 511.00 670.40 L 503.30 682.10 L 495.40 693.10 L 487.40 703.50 L 479.00 713.40 L 470.40 722.70 L 461.70 731.50 L 452.80 739.60 L 443.60 747.30 L 434.00 754.60 L 424.30 761.30 L 414.30 767.40 L 404.20 773.00 L 393.80 778.10 L 384.40 782.20 L 375.30 785.70 L 366.70 788.60 L 349.60 793.20 L 341.80 794.80 L 330.30 796.70 L 320.20 797.80 L 302.70 798.60 Z" fill="#ffffff" fill-rule="nonzero" group-id="1,11" node-id="201" stroke="none" target-height="390.3" target-width="642" target-x="283.3" target-y="408.3"></path></g></g><g clip-path="url(#XMLID_2_)" group-id="1,12" node-id="204"><path d="M 392.20 773.10 L 390.50 772.00 L 399.60 757.80 L 414.00 732.60 L 425.10 710.40 L 430.70 698.10 L 436.00 685.30 L 443.80 663.70 L 448.90 646.10 L 451.00 637.00 L 454.10 618.60 L 455.00 609.20 L 455.30 600.00 L 455.10 590.80 L 454.60 584.00 L 453.70 577.30 L 452.30 570.70 L 450.60 564.20 L 448.40 557.80 L 445.80 551.70 L 442.60 545.70 L 439.00 539.90 L 434.90 534.40 L 430.20 529.20 L 424.90 524.20 L 418.80 519.30 L 413.20 515.50 L 407.60 512.30 L 402.10 509.80 L 396.60 507.90 L 391.10 506.50 L 385.40 505.60 L 379.70 505.30 L 373.90 505.50 L 368.10 506.30 L 362.20 507.70 L 356.70 509.50 L 351.30 511.80 L 345.80 514.40 L 340.40 517.60 L 333.50 522.30 L 326.70 527.50 L 320.00 533.30 L 313.60 539.50 L 301.30 552.90 L 292.70 563.60 L 284.80 574.40 L 277.30 585.30 L 270.70 595.70 L 257.90 617.60 L 247.60 637.40 L 239.80 653.50 L 233.10 668.60 L 231.30 667.80 L 237.90 652.70 L 245.80 636.50 L 256.20 616.60 L 262.20 605.90 L 275.70 584.20 L 283.20 573.20 L 291.30 562.30 L 299.90 551.50 L 306.10 544.60 L 318.80 531.70 L 325.60 525.80 L 332.50 520.50 L 339.50 515.80 L 345.00 512.60 L 350.50 509.90 L 356.10 507.60 L 361.60 505.80 L 367.80 504.30 L 373.80 503.50 L 379.70 503.20 L 385.60 503.60 L 391.40 504.50 L 397.10 505.90 L 402.80 507.90 L 408.50 510.50 L 414.20 513.80 L 420.00 517.70 L 425.50 522.00 L 430.50 526.60 L 435.10 531.50 L 439.20 536.70 L 442.90 542.10 L 446.20 547.80 L 449.00 553.70 L 451.50 559.90 L 453.50 566.50 L 455.10 573.40 L 456.40 580.60 L 457.20 588.30 L 457.50 597.30 L 457.30 606.80 L 456.40 616.90 L 454.90 627.60 L 452.90 638.10 L 450.20 649.00 L 446.90 660.50 L 442.90 672.70 L 437.90 686.10 L 432.60 698.90 L 426.90 711.30 L 415.70 733.50 L 401.20 758.90 L 392.20 773.10 Z" fill="#ffffff" fill-rule="nonzero" group-id="1,12" node-id="206" stroke="none" target-height="269.89996" target-width="226.2" target-x="231.3" target-y="503.2"></path></g></g><path d="M 937.10 727.10 L 62.90 727.10 L 61.10 726.80 L 59.40 726.20 L 58.10 725.10 L 57.00 723.70 L 56.30 722.10 L 56.10 720.30 L 56.30 718.50 L 57.00 716.80 L 58.10 715.50 L 59.40 714.40 L 61.10 713.70 L 62.90 713.50 L 937.10 713.50 L 938.90 713.70 L 940.60 714.40 L 941.90 715.50 L 943.00 716.80 L 943.70 718.50 L 943.90 720.30 L 943.70 722.10 L 943.00 723.70 L 941.90 725.10 L 940.60 726.20 L 938.90 726.80 L 937.10 727.10 Z" fill="#26205c" fill-rule="nonzero" node-id="210" stroke="none" target-height="13.599976" target-width="887.80005" target-x="56.1" target-y="713.5"></path><path d="M 675.80 401.10 L 480.80 401.10 L 437.00 456.90 L 437.00 254.60 L 437.70 251.00 L 439.50 247.90 L 442.20 245.60 L 445.60 244.40 L 675.80 244.20 L 677.70 244.40 L 681.00 245.60 L 683.70 247.90 L 684.80 249.40 L 686.00 252.70 L 686.20 254.60 L 686.20 390.70 L 685.50 394.30 L 684.80 395.90 L 682.50 398.60 L 679.40 400.50 L 675.80 401.10 Z" fill="#ffffff" fill-rule="nonzero" node-id="212" stroke="none" target-height="212.7" target-width="249.20001" target-x="437" target-y="244.2"></path><path d="M 419.40 301.80 L 419.10 306.50 L 418.20 311.00 L 416.70 315.40 L 414.60 319.60 L 412.10 323.40 L 408.90 327.00 L 405.40 330.10 L 401.50 332.70 L 397.40 334.70 L 393.00 336.20 L 388.40 337.10 L 383.70 337.50 L 379.00 337.10 L 374.40 336.20 L 370.00 334.70 L 365.90 332.70 L 362.00 330.10 L 358.50 327.00 L 355.30 323.40 L 352.80 319.60 L 350.70 315.40 L 349.20 311.00 L 348.30 306.50 L 348.00 301.80 L 348.30 297.00 L 349.20 292.50 L 350.70 288.10 L 352.80 283.90 L 355.30 280.10 L 358.50 276.50 L 362.00 273.40 L 365.90 270.80 L 370.00 268.80 L 374.40 267.30 L 379.00 266.40 L 383.70 266.10 L 388.40 266.40 L 393.00 267.30 L 397.40 268.80 L 401.50 270.80 L 405.40 273.40 L 408.90 276.50 L 412.10 280.10 L 414.60 283.90 L 416.70 288.10 L 418.20 292.50 L 419.10 297.00 L 419.40 301.80 Z" fill="#ff6666" fill-rule="nonzero" node-id="214" stroke="none" target-height="71.399994" target-width="71.399994" target-x="348" target-y="266.1"></path><path d="M 161.50 287.90 L 279.00 287.90 L 279.00 316.80 L 161.50 316.80 Z" fill="#5a78ec" fill-rule="nonzero" node-id="216" stroke="none" target-height="28.899994" target-width="117.5" target-x="161.5" target-y="287.9"></path><path d="M 214.40 336.10 L 300.20 336.10 L 300.20 365.00 L 214.40 365.00 Z" fill="#eaeaff" fill-rule="nonzero" node-id="218" stroke="none" target-height="28.899994" target-width="85.80002" target-x="214.4" target-y="336.1"></path><g node-id="459"><g node-id="470"><path d="M 451.40 598.20 L 149.70 598.20 L 147.90 598.00 L 146.20 597.30 L 144.80 596.20 L 143.70 594.80 L 143.00 593.10 L 142.80 591.30 L 142.80 547.60 L 143.00 545.70 L 143.70 544.10 L 144.80 542.70 L 146.20 541.60 L 147.90 540.90 L 149.70 540.60 L 451.40 540.60 L 453.20 540.90 L 454.90 541.60 L 456.30 542.70 L 457.40 544.10 L 458.10 545.70 L 458.40 547.60 L 458.40 591.30 L 458.10 593.10 L 457.40 594.80 L 456.30 596.20 L 454.90 597.30 L 453.20 598.00 L 451.40 598.20 Z" fill="#ffffff" fill-rule="nonzero" group-id="2,13" node-id="224" stroke="none" target-height="57.600037" target-width="315.59998" target-x="142.8" target-y="540.6"></path></g><g clip-path="url(#XMLID_3_)" group-id="2,14" node-id="227"><path d="M 396.30 518.10 L 480.80 518.10 L 480.80 619.40 L 396.30 619.40 Z" fill="#ff6666" fill-rule="nonzero" group-id="2,14" node-id="229" stroke="none" target-height="101.30005" target-width="84.5" target-x="396.3" target-y="518.1"></path></g></g><path d="M 459.00 588.80 L 157.30 588.80 L 155.50 588.60 L 153.80 587.90 L 152.40 586.80 L 151.30 585.40 L 150.60 583.70 L 150.40 581.90 L 150.40 538.20 L 150.60 536.30 L 151.30 534.70 L 152.40 533.30 L 153.80 532.20 L 155.50 531.50 L 157.30 531.20 L 459.00 531.20 L 460.80 531.50 L 462.50 532.20 L 463.90 533.30 L 465.00 534.70 L 465.70 536.30 L 465.90 538.20 L 465.90 581.90 L 465.70 583.70 L 465.00 585.40 L 463.90 586.80 L 462.50 587.90 L 460.80 588.60 L 459.00 588.80 Z" fill="none" node-id="233" stroke="#232323" stroke-linecap="round" stroke-width="2" target-height="57.599976" target-width="315.5" target-x="150.4" target-y="531.2"></path><path d="M 423.50 580.20 L 420.60 579.90 L 418.00 579.20 L 415.50 578.10 L 413.30 576.50 L 411.40 574.60 L 409.80 572.40 L 408.70 569.90 L 408.00 567.30 L 407.70 564.40 L 408.00 561.60 L 408.70 558.90 L 409.80 556.50 L 411.40 554.30 L 413.30 552.40 L 415.50 550.80 L 418.00 549.60 L 420.60 548.90 L 423.50 548.70 L 426.30 548.90 L 429.00 549.60 L 431.40 550.80 L 433.60 552.40 L 435.50 554.30 L 437.10 556.50 L 438.30 558.90 L 439.00 561.60 L 439.30 564.40 L 439.00 567.30 L 438.30 569.90 L 437.10 572.40 L 435.50 574.60 L 433.60 576.50 L 431.40 578.10 L 429.00 579.20 L 426.30 579.90 L 423.50 580.20 Z M 423.50 550.70 L 421.00 550.90 L 418.70 551.50 L 416.50 552.50 L 414.60 553.90 L 411.60 557.50 L 410.60 559.60 L 409.90 561.90 L 409.70 564.40 L 409.90 566.90 L 410.60 569.20 L 411.60 571.40 L 412.90 573.30 L 416.50 576.30 L 418.70 577.40 L 421.00 578.00 L 423.50 578.20 L 426.00 578.00 L 428.30 577.40 L 430.40 576.30 L 432.40 575.00 L 435.40 571.40 L 436.40 569.20 L 437.00 566.90 L 437.30 564.40 L 437.00 561.90 L 436.40 559.60 L 435.40 557.50 L 432.40 553.90 L 430.40 552.50 L 428.30 551.50 L 426.00 550.90 L 423.50 550.70 Z" fill="#ffffff" fill-rule="nonzero" node-id="235" stroke="none" target-height="31.5" target-width="31.599976" target-x="407.7" target-y="548.7"></path><path d="M 449.60 588.90 L 448.90 588.60 L 433.40 575.50 L 433.10 574.80 L 433.30 574.10 L 434.00 573.80 L 434.70 574.00 L 450.20 587.10 L 450.60 587.80 L 450.30 588.50 L 449.60 588.90 Z" fill="#ffffff" fill-rule="nonzero" node-id="237" stroke="none" target-height="15.100037" target-width="17.5" target-x="433.1" target-y="573.8"></path><path d="M 460.60 259.80 L 658.30 259.80 L 658.30 278.80 L 460.60 278.80 Z" fill="#f1f1f1" fill-rule="nonzero" node-id="239" stroke="none" target-height="19" target-width="197.69998" target-x="460.6" target-y="259.8"></path><path d="M 460.60 286.20 L 658.30 286.20 L 658.30 305.20 L 460.60 305.20 Z" fill="#f1f1f1" fill-rule="nonzero" node-id="241" stroke="none" target-height="19" target-width="197.69998" target-x="460.6" target-y="286.2"></path><path d="M 460.60 311.80 L 576.40 311.80 L 576.40 330.80 L 460.60 330.80 Z" fill="#f1f1f1" fill-rule="nonzero" node-id="243" stroke="none" target-height="19" target-width="115.80002" target-x="460.6" target-y="311.8"></path><path d="M 458.40 346.60 L 493.10 346.60 L 493.10 381.30 L 458.40 381.30 Z" fill="#ffd840" fill-rule="nonzero" node-id="245" stroke="none" target-height="34.69998" target-width="34.700012" target-x="458.4" target-y="346.6"></path><path d="M 515.50 346.60 L 550.20 346.60 L 550.20 381.30 L 515.50 381.30 Z" fill="#ff6666" fill-rule="nonzero" node-id="247" stroke="none" target-height="34.69998" target-width="34.700012" target-x="515.5" target-y="346.6"></path><path d="M 447.80 439.70 L 442.50 439.40 L 438.00 438.70 L 434.00 437.50 L 428.60 434.70 L 424.60 430.90 L 422.90 428.50 L 421.60 425.70 L 420.70 422.70 L 420.10 419.30 L 419.90 415.60 L 420.20 411.30 L 421.00 406.70 L 422.30 401.60 L 424.30 396.00 L 427.00 389.70 L 430.40 382.80 L 431.00 382.30 L 431.80 382.40 L 432.30 382.90 L 432.20 383.70 L 428.90 390.30 L 426.30 396.30 L 424.40 401.70 L 423.10 406.60 L 422.30 411.10 L 422.00 415.90 L 422.30 420.10 L 423.10 423.80 L 424.40 426.90 L 426.20 429.70 L 428.10 431.70 L 430.40 433.50 L 433.00 435.00 L 436.00 436.10 L 439.40 437.00 L 443.70 437.60 L 448.50 437.80 L 453.90 437.50 L 460.00 436.70 L 467.90 435.00 L 476.70 432.60 L 486.40 429.20 L 495.90 425.40 L 506.10 420.80 L 517.10 415.30 L 527.70 409.40 L 538.80 402.70 L 550.40 395.30 L 561.80 387.60 L 573.30 379.10 L 585.00 370.00 L 596.20 360.80 L 606.70 351.60 L 616.70 342.30 L 626.40 332.60 L 635.40 323.20 L 643.60 313.90 L 651.40 304.30 L 658.40 295.00 L 664.40 286.20 L 672.30 272.90 L 677.50 261.60 L 679.50 255.80 L 680.90 250.60 L 681.70 246.00 L 682.00 241.90 L 681.80 238.40 L 681.30 235.40 L 680.40 232.60 L 679.30 230.10 L 677.70 227.90 L 675.40 225.50 L 672.60 223.60 L 669.30 222.00 L 665.40 220.80 L 660.70 220.10 L 651.30 220.10 L 639.60 221.80 L 632.70 223.50 L 624.70 225.90 L 616.00 229.00 L 606.40 232.90 L 596.00 237.70 L 595.20 237.80 L 594.60 237.30 L 594.60 236.50 L 595.10 235.90 L 605.80 231.00 L 615.60 227.00 L 624.50 223.80 L 632.70 221.40 L 639.80 219.80 L 646.20 218.70 L 651.90 218.10 L 657.00 218.00 L 661.60 218.30 L 666.40 219.10 L 670.50 220.30 L 673.90 222.00 L 676.80 224.10 L 679.30 226.60 L 680.90 229.00 L 682.20 231.70 L 683.20 234.60 L 683.70 237.80 L 684.00 241.40 L 683.70 245.70 L 683.00 250.50 L 681.60 255.90 L 679.50 261.90 L 674.20 273.60 L 670.50 280.10 L 666.10 287.30 L 660.00 296.20 L 653.00 305.50 L 645.10 315.20 L 636.90 324.50 L 627.90 334.00 L 618.10 343.70 L 608.10 353.00 L 597.50 362.30 L 586.30 371.60 L 574.80 380.50 L 563.40 388.80 L 552.10 396.60 L 540.60 404.00 L 529.30 410.70 L 518.40 416.80 L 507.30 422.40 L 496.70 427.20 L 486.60 431.20 L 478.90 433.90 L 465.40 437.60 L 458.90 438.80 L 453.10 439.50 L 447.80 439.70 Z" fill="#ffd840" fill-rule="nonzero" node-id="249" stroke="none" target-height="221.70001" target-width="264.1" target-x="419.9" target-y="218"></path><path d="M 630.90 337.90 L 630.60 339.90 L 629.90 341.60 L 628.70 343.10 L 627.20 344.20 L 625.50 344.90 L 623.50 345.20 L 621.60 344.90 L 619.80 344.20 L 618.40 343.10 L 617.20 341.60 L 616.50 339.90 L 616.20 337.90 L 616.50 335.90 L 617.20 334.20 L 618.40 332.70 L 619.80 331.60 L 621.60 330.80 L 623.50 330.60 L 625.50 330.80 L 627.20 331.60 L 628.70 332.70 L 629.90 334.20 L 630.60 335.90 L 630.90 337.90 Z" fill="#5a78ec" fill-rule="nonzero" node-id="251" stroke="none" target-height="14.600006" target-width="14.700012" target-x="616.2" target-y="330.6"></path><g node-id="460"><g node-id="472"><g node-id="481"><path d="M 309.30 680.80 L 309.30 689.30 L 314.60 690.10 L 318.60 691.20 L 322.90 692.80 L 331.70 697.30 L 339.40 702.90 L 343.20 706.30 L 347.00 710.40 L 350.90 715.20 L 267.80 715.20 L 270.80 681.00 L 309.30 680.80 Z" fill="#26205c" fill-rule="nonzero" group-id="3,15,24" node-id="259" stroke="none" target-height="34.400024" target-width="83.100006" target-x="267.8" target-y="680.8"></path></g><g clip-path="url(#SVGID_1_)" group-id="3,15,25" node-id="262"><path d="M 378.90 713.10 L 233.50 713.10 L 233.50 711.00 L 378.90 711.00 Z" fill="#ffffff" fill-rule="nonzero" group-id="3,15,25" node-id="264" stroke="none" target-height="2.0999756" target-width="145.4" target-x="233.5" target-y="711"></path></g></g><g node-id="473"><path d="M 339.40 325.00 L 336.40 322.70 L 336.70 319.40 L 336.40 316.10 L 335.60 313.00 L 334.20 310.20 L 332.40 307.60 L 330.20 305.40 L 327.70 303.60 L 324.90 302.30 L 321.80 301.50 L 318.50 301.10 L 315.20 301.50 L 312.10 302.30 L 309.30 303.60 L 306.70 305.40 L 304.60 307.60 L 302.70 310.20 L 301.40 313.00 L 300.60 316.10 L 300.20 319.40 L 300.60 322.70 L 301.40 325.80 L 302.70 328.60 L 304.60 331.10 L 306.70 333.30 L 309.30 335.10 L 312.10 336.50 L 315.20 337.30 L 318.50 337.60 L 320.90 337.40 L 325.40 336.20 L 329.40 334.00 L 332.70 330.80 L 335.10 326.90 L 337.30 327.00 L 339.30 326.50 L 339.70 325.80 L 339.40 325.00 Z" fill="#ffb7b7" fill-rule="nonzero" group-id="3,16" node-id="270" stroke="none" target-height="36.5" target-width="39.5" target-x="300.2" target-y="301.1"></path><path d="M 300.20 321.70 L 307.10 319.20 L 306.60 315.90 L 307.00 312.00 L 307.80 310.40 L 308.70 309.60 L 309.90 309.20 L 311.60 309.10 L 313.40 309.30 L 319.20 311.90 L 319.50 310.10 L 320.60 308.20 L 321.60 307.50 L 322.90 307.30 L 324.90 307.60 L 327.50 308.70 L 332.40 311.50 L 334.20 311.60 L 335.40 311.20 L 337.20 308.70 L 339.10 304.80 L 339.70 301.10 L 338.90 298.20 L 338.00 296.90 L 336.60 295.60 L 334.50 294.30 L 326.80 290.60 L 320.30 288.30 L 318.20 287.90 L 314.10 288.20 L 310.00 289.90 L 304.40 294.10 L 301.50 297.00 L 299.90 299.00 L 297.60 303.50 L 296.90 306.00 L 296.60 308.70 L 296.80 311.60 L 297.30 314.60 L 298.40 317.90 L 300.20 321.70 Z" fill="#26205c" fill-rule="nonzero" group-id="3,16" node-id="272" stroke="none" target-height="33.80002" target-width="43.100006" target-x="296.6" target-y="287.9"></path></g><path d="M 283.90 354.20 L 349.80 346.70 L 352.30 346.60 L 357.10 347.60 L 359.30 348.60 L 363.00 351.50 L 365.70 355.50 L 366.60 357.90 L 376.70 459.10 L 287.30 459.10 L 270.20 370.40 L 270.30 367.50 L 270.90 364.70 L 272.10 362.10 L 273.70 359.70 L 275.80 357.70 L 278.10 356.10 L 280.80 354.90 L 283.90 354.20 Z" fill="#5a78ec" fill-rule="nonzero" group-id="3" node-id="275" stroke="none" target-height="112.5" target-width="106.5" target-x="270.2" target-y="346.6"></path><path d="M 272.00 445.30 L 269.50 444.70 L 267.20 443.60 L 265.20 442.20 L 263.40 440.50 L 262.00 438.60 L 260.90 436.30 L 260.20 434.00 L 259.90 431.50 L 260.10 428.90 L 269.60 368.80 L 270.20 366.30 L 271.30 364.00 L 272.70 362.00 L 274.40 360.20 L 276.30 358.80 L 278.60 357.70 L 280.90 357.00 L 283.40 356.70 L 286.00 356.90 L 288.60 357.50 L 290.90 358.60 L 292.90 360.00 L 294.70 361.70 L 296.10 363.60 L 297.20 365.90 L 297.90 368.20 L 298.20 370.70 L 298.00 373.30 L 288.50 433.40 L 287.80 435.90 L 286.80 438.20 L 285.40 440.20 L 283.70 442.00 L 281.70 443.40 L 279.50 444.50 L 277.10 445.20 L 274.70 445.50 L 272.00 445.30 Z" fill="#5a78ec" fill-rule="nonzero" group-id="3" node-id="277" stroke="none" target-height="88.79999" target-width="38.30002" target-x="259.9" target-y="356.7"></path><path d="M 392.90 421.10 L 390.60 422.40 L 388.20 423.10 L 385.80 423.50 L 383.30 423.40 L 380.90 423.00 L 378.60 422.10 L 376.50 420.80 L 374.60 419.20 L 372.90 417.20 L 340.60 369.00 L 339.30 366.60 L 338.50 364.30 L 338.10 361.80 L 338.20 359.40 L 338.70 357.00 L 339.60 354.70 L 340.80 352.60 L 342.40 350.70 L 344.50 349.00 L 346.80 347.80 L 349.20 347.00 L 351.60 346.60 L 354.10 346.70 L 356.40 347.10 L 358.80 348.00 L 360.90 349.30 L 362.80 350.90 L 364.40 352.90 L 396.80 401.10 L 398.10 403.50 L 398.80 405.80 L 399.20 408.30 L 399.10 410.70 L 398.70 413.10 L 397.80 415.40 L 396.50 417.50 L 394.90 419.40 L 392.90 421.10 Z" fill="#5a78ec" fill-rule="nonzero" group-id="3" node-id="279" stroke="none" target-height="76.899994" target-width="61.100006" target-x="338.1" target-y="346.6"></path><g node-id="474"><path d="M 477.10 399.60 L 476.40 397.20 L 475.30 395.20 L 473.60 393.60 L 471.60 392.40 L 469.40 391.80 L 466.90 391.70 L 458.40 392.80 L 452.80 398.30 L 451.00 399.10 L 449.10 398.30 L 448.50 397.50 L 448.50 395.50 L 449.90 393.80 L 440.80 395.00 L 438.40 395.60 L 436.40 396.80 L 434.80 398.40 L 433.60 400.40 L 432.90 402.60 L 432.90 405.10 L 433.50 407.50 L 434.70 409.50 L 436.40 411.10 L 438.40 412.30 L 440.60 413.00 L 443.00 413.00 L 469.20 409.70 L 471.50 409.10 L 473.60 407.90 L 475.20 406.30 L 476.40 404.30 L 477.00 402.10 L 477.10 399.60 Z" fill="#ffb7b7" fill-rule="nonzero" group-id="3,17" node-id="283" stroke="none" target-height="21.299988" target-width="44.200012" target-x="432.9" target-y="391.7"></path><path d="M 459.80 391.30 L 460.60 389.50 L 460.40 388.50 L 459.80 387.60 L 458.00 386.90 L 457.00 387.10 L 456.10 387.60 L 449.90 393.80 L 458.40 392.80 L 459.80 391.30 Z" fill="#ffb7b7" fill-rule="nonzero" group-id="3,17" node-id="285" stroke="none" target-height="6.899994" target-width="10.700012" target-x="449.9" target-y="386.9"></path><path d="M 449.10 398.30 L 450.00 398.90 L 451.90 398.90 L 458.40 392.80 L 449.90 393.80 L 448.50 395.50 L 448.40 396.50 L 449.10 398.30 Z" fill="#ffb7b7" fill-rule="nonzero" group-id="3,17" node-id="287" stroke="none" target-height="6.100006" target-width="10" target-x="448.4" target-y="392.8"></path></g><path d="M 448.00 390.90 L 450.30 415.10 L 449.80 416.70 L 448.30 417.50 L 386.60 423.50 L 383.90 423.50 L 381.50 423.10 L 379.20 422.20 L 377.00 421.00 L 375.20 419.50 L 373.60 417.60 L 372.30 415.50 L 371.40 413.10 L 370.90 410.50 L 370.90 407.90 L 371.30 405.50 L 372.20 403.10 L 373.40 401.00 L 374.90 399.10 L 376.80 397.50 L 378.90 396.20 L 381.30 395.40 L 383.90 394.90 L 445.50 388.90 L 447.20 389.40 L 448.00 390.90 Z" fill="#5a78ec" fill-rule="nonzero" group-id="3" node-id="290" stroke="none" target-height="34.600006" target-width="79.399994" target-x="370.9" target-y="388.9"></path><g node-id="475"><g node-id="483"><path d="M 287.30 459.10 L 270.10 674.10 L 312.10 674.20 L 333.60 475.80 L 348.60 674.10 L 400.30 674.10 L 376.70 459.10 Z" fill="#26205c" fill-rule="nonzero" group-id="3,18,26" node-id="296" stroke="none" target-height="215.1" target-width="130.19998" target-x="270.1" target-y="459.1"></path></g><g clip-path="url(#SVGID_2_)" group-id="3,18,27" node-id="299"><path d="M 282.30 482.70 L 286.70 490.60 L 316.10 473.20 L 308.20 461.60 L 387.80 462.70 L 385.50 459.10 L 279.00 459.10 Z" fill="#13113d" fill-rule="nonzero" group-id="3,18,27" node-id="301" stroke="none" target-height="31.5" target-width="108.79999" target-x="279" target-y="459.1"></path></g></g><path d="M 310.90 474.20 L 290.00 486.30 L 289.10 486.60 L 287.50 486.20 L 261.30 441.10 L 260.20 438.70 L 259.50 436.30 L 259.40 433.90 L 259.60 431.40 L 260.20 429.10 L 261.20 426.80 L 262.60 424.80 L 264.40 423.00 L 266.50 421.50 L 268.90 420.40 L 271.30 419.70 L 273.80 419.60 L 276.30 419.80 L 278.60 420.40 L 280.80 421.40 L 282.90 422.80 L 284.60 424.60 L 286.20 426.70 L 311.80 471.10 L 312.00 472.80 L 310.90 474.20 Z" fill="#5a78ec" fill-rule="nonzero" group-id="3" node-id="305" stroke="none" target-height="67" target-width="52.600006" target-x="259.4" target-y="419.6"></path><path d="M 271.80 674.10 L 270.80 681.00 L 309.30 681.10 L 309.70 674.20 Z" fill="#ffb7b7" fill-rule="nonzero" group-id="3" node-id="307" stroke="none" target-height="7" target-width="38.900024" target-x="270.8" target-y="674.1"></path><g node-id="476"><g node-id="485"><path d="M 391.40 680.80 L 392.50 689.30 L 397.70 690.10 L 401.80 691.20 L 406.10 692.80 L 414.90 697.30 L 422.60 702.90 L 426.30 706.30 L 430.20 710.40 L 434.10 715.20 L 350.90 715.20 L 350.90 681.00 L 391.40 680.80 Z" fill="#26205c" fill-rule="nonzero" group-id="3,19,28" node-id="313" stroke="none" target-height="34.400024" target-width="83.20001" target-x="350.9" target-y="680.8"></path></g><g clip-path="url(#SVGID_3_)" group-id="3,19,29" node-id="316"><path d="M 462.10 713.10 L 316.70 713.10 L 316.70 711.00 L 462.10 711.00 Z" fill="#ffffff" fill-rule="nonzero" group-id="3,19,29" node-id="318" stroke="none" target-height="2.0999756" target-width="145.4" target-x="316.7" target-y="711"></path></g></g><path d="M 350.90 674.10 L 350.90 681.00 L 391.40 680.80 L 390.70 674.10 Z" fill="#ffb7b7" fill-rule="nonzero" group-id="3" node-id="322" stroke="none" target-height="6.9000244" target-width="40.5" target-x="350.9" target-y="674.1"></path><path d="M 293.90 381.00 L 286.70 427.70 L 304.90 459.10 L 308.20 459.10 L 289.70 425.70 Z" fill="#4c6ac8" fill-rule="nonzero" group-id="3" node-id="324" stroke="none" target-height="78.100006" target-width="21.5" target-x="286.7" target-y="381"></path><path d="M 344.30 374.50 L 372.90 417.20 L 372.90 423.60 Z" fill="#4c6ac8" fill-rule="nonzero" group-id="3" node-id="326" stroke="none" target-height="49.100006" target-width="28.600006" target-x="344.3" target-y="374.5"></path><path d="M 340.60 369.00 L 369.70 412.40" fill="none" group-id="3" node-id="328" stroke="#232323" stroke-linecap="round" stroke-width="2" target-height="43.399994" target-width="29.100006" target-x="340.6" target-y="369"></path><path d="M 290.00 486.30 L 290.90 488.20 L 303.10 483.00 L 311.50 476.30 L 313.00 474.20 L 312.00 473.00 Z" fill="#ffb7b7" fill-rule="nonzero" group-id="3" node-id="330" stroke="none" target-height="15.200012" target-width="23" target-x="290" target-y="473"></path><path d="M 314.30 470.50 L 313.60 473.00 L 311.00 476.90 L 308.40 479.40 L 305.20 481.70 L 296.90 486.00 L 287.30 489.20 L 273.20 668.20" fill="none" group-id="3" node-id="332" stroke="#ffffff" stroke-linecap="round" stroke-width="2" target-height="197.70001" target-width="41.099976" target-x="273.2" target-y="470.5"></path><path d="M 358.60 469.30 L 359.40 472.80 L 360.60 475.20 L 362.30 477.60 L 364.90 480.20 L 366.90 481.70 L 372.90 484.50 L 394.80 668.20" fill="none" group-id="3" node-id="334" stroke="#ffffff" stroke-linecap="round" stroke-width="2" target-height="198.90002" target-width="36.19998" target-x="358.6" target-y="469.3"></path><path d="M 293.70 377.40 L 286.20 426.70 L 303.60 456.90" fill="none" group-id="3" node-id="336" stroke="#232323" stroke-linecap="round" stroke-width="2" target-height="79.5" target-width="17.399994" target-x="286.2" target-y="377.4"></path></g><g node-id="461"><g node-id="477"><path d="M 738.90 473.00 L 742.40 462.80 L 744.50 458.10 L 750.80 446.50 L 755.00 440.20 L 761.60 432.10 L 765.50 428.00 L 769.70 424.20 L 774.30 420.60 L 779.40 417.10 L 782.80 418.40 L 785.20 419.90 L 788.50 423.00 L 791.80 427.90 L 794.80 435.20 L 795.80 439.30 L 796.70 444.40 L 797.20 450.60 L 797.30 456.80 L 797.00 464.20 L 796.10 473.00 L 798.40 463.90 L 802.00 455.30 L 804.60 450.70 L 807.80 446.30 L 810.20 443.50 L 813.00 441.00 L 816.10 438.70 L 819.40 436.80 L 823.20 435.40 L 827.40 434.40 L 834.10 434.00 L 842.10 435.10 L 839.10 438.90 L 834.90 445.70 L 832.60 450.30 L 830.50 455.30 L 827.80 465.30 L 826.80 474.50 L 832.10 476.50 L 839.70 480.70 L 843.80 483.80 L 846.30 486.20 L 850.90 492.00 L 852.70 495.40 L 854.10 499.20 L 855.00 503.50 L 855.20 510.30 L 853.70 518.60 L 864.80 510.20 L 873.60 505.00 L 878.30 502.70 L 883.10 500.90 L 887.80 499.70 L 882.30 512.40 L 879.10 522.30 L 877.80 527.50 L 876.90 532.80 L 876.60 537.90 L 876.70 541.20 L 877.90 547.10 L 882.20 544.60 L 885.60 543.00 L 889.40 541.70 L 897.50 539.90 L 905.10 539.60 L 909.00 540.00 L 913.20 540.80 L 917.70 542.10 L 908.60 552.90 L 902.90 561.60 L 900.50 566.30 L 899.10 569.60 L 897.30 576.20 L 896.90 579.50 L 897.00 582.60 L 897.60 585.70 L 908.20 582.30 L 913.10 581.10 L 922.60 579.90 L 930.50 580.00 L 934.40 580.60 L 938.10 581.60 L 941.60 583.10 L 937.40 586.50 L 930.90 593.30 L 926.90 598.40 L 923.00 604.00 L 918.80 611.10 L 916.20 616.10 L 911.30 628.20 L 915.80 630.40 L 919.30 633.00 L 924.40 638.10 L 930.50 646.20 L 937.00 658.10 L 933.40 659.90 L 926.50 662.10 L 921.40 663.10 L 915.90 663.60 L 909.00 663.80 L 914.00 666.40 L 921.20 671.40 L 927.70 677.90 L 932.40 684.60 L 934.30 688.40 L 935.80 692.60 L 937.00 697.30 L 937.80 704.70 L 937.60 708.90 L 937.10 713.50 L 722.20 713.50 L 738.90 473.00 Z" fill="#adcd55" fill-rule="nonzero" group-id="4,20" node-id="343" stroke="none" target-height="296.4" target-width="219.39996" target-x="722.2" target-y="417.1"></path></g><g clip-path="url(#XMLID_4_)" group-id="4,21" node-id="346"><path d="M 708.70 456.90 L 800.00 456.90 L 803.80 457.30 L 805.70 457.80 L 809.00 459.60 L 811.00 461.50 L 812.60 463.90 L 813.60 466.50 L 814.10 469.30 L 814.50 480.70 L 814.50 626.30 L 856.70 626.30 L 862.30 629.20 L 866.60 631.90 L 871.20 635.20 L 876.70 639.80 L 884.00 647.10 L 891.80 656.60 L 899.20 668.30 L 902.50 674.80 L 905.70 682.00 L 908.60 690.10 L 911.00 698.30 L 913.10 707.50 L 914.70 717.60 L 728.20 717.60 L 708.70 456.90 Z" fill="#6f8037" fill-opacity="0.64" fill-rule="nonzero" group-id="4,21" node-id="348" stroke="none" target-height="260.69998" target-width="206" target-x="708.7" target-y="456.9"></path></g></g><g node-id="462"><g node-id="479"><g node-id="487"><path d="M 496.30 461.30 L 492.80 461.90 L 489.70 463.70 L 487.50 466.40 L 486.70 467.90 L 486.10 471.50 L 486.20 683.70 L 487.10 693.80 L 488.80 702.10 L 491.30 708.20 L 494.10 711.70 L 495.80 712.80 L 497.80 713.40 L 500.00 713.50 L 804.40 713.50 L 804.40 471.50 L 803.80 467.90 L 803.00 466.40 L 800.80 463.70 L 797.80 461.90 L 794.20 461.30 L 496.30 461.30 Z" fill="#5a78ec" fill-rule="nonzero" group-id="5,22,30" node-id="358" stroke="none" target-height="252.20001" target-width="318.30002" target-x="486.1" target-y="461.3"></path></g><g clip-path="url(#SVGID_4_)" group-id="5,22,31" node-id="361"><path d="M 446.30 619.50 L 833.60 619.50 L 833.60 776.40 L 446.30 776.40 Z" fill="#4d6bce" fill-rule="nonzero" group-id="5,22,31" node-id="363" stroke="none" target-height="156.90002" target-width="387.3" target-x="446.3" target-y="619.5"></path></g></g><path d="M 906.70 713.50 L 905.40 705.00 L 901.80 691.40 L 898.70 683.00 L 896.20 677.40 L 889.70 665.30 L 885.70 659.30 L 881.10 653.30 L 875.80 647.40 L 871.50 643.20 L 866.80 639.20 L 861.60 635.30 L 856.00 631.60 L 571.00 631.60 L 577.30 632.80 L 582.10 634.30 L 587.30 636.30 L 593.60 639.50 L 602.10 645.00 L 606.80 648.80 L 611.10 652.90 L 615.50 657.70 L 620.00 663.40 L 623.00 667.90 L 628.80 678.40 L 631.60 684.60 L 636.20 697.60 L 640.00 713.50 L 906.70 713.50 Z" fill="#5a78ec" fill-rule="nonzero" group-id="5" node-id="367" stroke="none" target-height="81.900024" target-width="335.7" target-x="571" target-y="631.6"></path><path d="M 515.20 713.50 L 518.20 713.10 L 520.40 712.30 L 522.80 711.10 L 525.60 708.90 L 529.20 704.70 L 532.90 698.40 L 536.30 689.20 L 537.60 684.00 L 540.70 665.10 L 541.70 660.60 L 544.40 653.30 L 546.80 648.80 L 549.40 645.20 L 552.20 642.20 L 555.30 639.50 L 561.40 635.70 L 566.10 633.70 L 570.30 632.60 L 574.20 631.90 L 579.50 631.60 L 585.80 632.10 L 593.80 634.00 L 601.60 637.30 L 605.50 639.50 L 609.60 642.30 L 613.90 645.90 L 619.80 652.10 L 622.70 656.00 L 628.20 664.90 L 630.60 670.00 L 634.90 682.40 L 636.60 688.90 L 638.00 696.10 L 639.10 704.30 L 640.00 713.50 L 515.20 713.50 Z" fill="#3a59af" fill-rule="nonzero" group-id="5" node-id="369" stroke="none" target-height="81.900024" target-width="124.79999" target-x="515.2" target-y="631.6"></path><path d="M 747.90 512.80 L 519.40 512.80 L 518.30 512.70 L 516.40 511.60 L 515.30 509.70 L 515.20 508.60 L 515.30 495.60 L 516.40 493.70 L 518.30 492.60 L 747.90 492.50 L 749.00 492.60 L 750.90 493.70 L 752.00 495.60 L 752.10 496.70 L 752.00 509.70 L 751.50 510.70 L 750.00 512.30 L 747.90 512.80 Z" fill="#ffffff" fill-rule="nonzero" group-id="5" node-id="371" stroke="none" target-height="20.299988" target-width="236.89996" target-x="515.2" target-y="492.5"></path><path d="M 681.90 544.50 L 519.40 544.50 L 518.30 544.30 L 516.40 543.30 L 515.30 541.40 L 515.20 540.20 L 515.30 527.30 L 515.70 526.30 L 517.30 524.70 L 519.40 524.20 L 681.90 524.20 L 683.10 524.30 L 684.90 525.40 L 686.00 527.30 L 686.20 528.40 L 686.00 541.40 L 685.60 542.40 L 684.10 543.90 L 681.90 544.50 Z" fill="#ffffff" fill-rule="nonzero" group-id="5" node-id="373" stroke="none" target-height="20.299988" target-width="171" target-x="515.2" target-y="524.2"></path><path d="M 614.90 560.00 L 516.90 560.00 L 515.70 559.50 L 515.20 558.30 L 515.30 556.90 L 515.70 556.40 L 516.90 555.80 L 614.90 555.80 L 616.20 556.40 L 616.70 557.60 L 616.60 559.00 L 616.20 559.50 L 614.90 560.00 Z" fill="#ffffff" fill-rule="nonzero" group-id="5" node-id="375" stroke="none" target-height="4.200012" target-width="101.5" target-x="515.2" target-y="555.8"></path><path d="M 745.00 646.70 L 647.00 646.70 L 645.80 646.20 L 645.30 645.00 L 645.40 643.60 L 646.30 642.70 L 745.00 642.50 L 746.30 643.00 L 746.80 644.30 L 746.70 645.60 L 746.30 646.20 L 745.00 646.70 Z" fill="#ffffff" fill-rule="nonzero" group-id="5" node-id="377" stroke="none" target-height="4.200012" target-width="101.5" target-x="645.3" target-y="642.5"></path><path d="M 799.10 657.30 L 652.30 657.30 L 651.10 656.80 L 650.60 655.60 L 650.70 654.20 L 651.60 653.30 L 799.10 653.10 L 800.40 653.70 L 800.90 654.90 L 800.70 656.30 L 800.40 656.80 L 799.10 657.30 Z" fill="#ffffff" fill-rule="nonzero" group-id="5" node-id="379" stroke="none" target-height="4.200012" target-width="150.30005" target-x="650.6" target-y="653.1"></path><path d="M 778.10 670.30 L 659.40 670.30 L 658.20 669.80 L 657.60 668.50 L 657.80 667.20 L 658.70 666.30 L 778.10 666.10 L 779.40 666.60 L 779.90 667.90 L 779.70 669.20 L 779.40 669.80 L 778.10 670.30 Z" fill="#ffffff" fill-rule="nonzero" group-id="5" node-id="381" stroke="none" target-height="4.200012" target-width="122.30005" target-x="657.6" target-y="666.1"></path><path d="M 548.70 571.50 L 516.90 571.50 L 515.70 570.90 L 515.20 569.70 L 515.30 568.30 L 516.20 567.40 L 548.70 567.30 L 550.00 567.80 L 550.50 569.00 L 550.40 570.40 L 550.00 570.90 L 548.70 571.50 Z" fill="#ffffff" fill-rule="nonzero" group-id="5" node-id="383" stroke="none" target-height="4.200012" target-width="35.299988" target-x="515.2" target-y="567.3"></path><path d="M 665.10 571.50 L 561.80 571.50 L 560.50 570.90 L 560.00 569.70 L 560.10 568.30 L 560.50 567.80 L 561.80 567.30 L 665.10 567.30 L 666.30 567.80 L 666.90 569.00 L 666.70 570.40 L 666.30 570.90 L 665.10 571.50 Z" fill="#ffffff" fill-rule="nonzero" group-id="5" node-id="385" stroke="none" target-height="4.200012" target-width="106.900024" target-x="560" target-y="567.3"></path><path d="M 583.20 582.90 L 516.90 582.90 L 515.70 582.40 L 515.20 581.10 L 515.30 579.80 L 516.20 578.80 L 583.20 578.70 L 584.50 579.20 L 585.00 580.40 L 584.90 581.80 L 584.50 582.40 L 583.20 582.90 Z" fill="#ffffff" fill-rule="nonzero" group-id="5" node-id="387" stroke="none" target-height="4.200012" target-width="69.79999" target-x="515.2" target-y="578.7"></path><path d="M 610.50 582.90 L 597.20 582.70 L 596.30 581.80 L 596.10 580.40 L 596.60 579.20 L 597.90 578.70 L 611.20 578.80 L 612.10 579.80 L 612.30 581.10 L 611.80 582.40 L 610.50 582.90 Z" fill="#ffffff" fill-rule="nonzero" group-id="5" node-id="389" stroke="none" target-height="4.200012" target-width="16.200012" target-x="596.1" target-y="578.7"></path><path d="M 524.20 594.30 L 516.20 594.20 L 515.30 593.20 L 515.20 591.90 L 515.70 590.60 L 516.90 590.10 L 524.90 590.20 L 525.90 591.20 L 526.00 592.50 L 525.50 593.80 L 524.20 594.30 Z" fill="#ffffff" fill-rule="nonzero" group-id="5" node-id="391" stroke="none" target-height="4.200012" target-width="10.799988" target-x="515.2" target-y="590.1"></path><path d="M 574.60 594.30 L 534.60 594.30 L 533.40 593.80 L 532.80 592.50 L 533.00 591.20 L 533.40 590.60 L 534.60 590.10 L 574.60 590.10 L 575.90 590.60 L 576.40 591.90 L 576.30 593.20 L 575.90 593.80 L 574.60 594.30 Z" fill="#ffffff" fill-rule="nonzero" group-id="5" node-id="393" stroke="none" target-height="4.200012" target-width="43.600037" target-x="532.8" target-y="590.1"></path><path d="M 849.00 661.00 L 852.00 667.10 L 858.30 668.20 L 859.20 668.70 L 859.70 669.40 L 859.70 670.30 L 859.20 671.20 L 854.80 676.20 L 855.70 683.00 L 855.60 684.00 L 855.00 684.70 L 854.20 685.00 L 853.30 684.80 L 847.60 681.80 L 841.80 684.80 L 840.90 685.00 L 840.10 684.70 L 839.50 684.00 L 839.40 683.00 L 840.30 676.20 L 835.90 671.20 L 835.40 670.30 L 835.40 669.40 L 835.90 668.70 L 836.80 668.20 L 843.10 667.10 L 846.10 661.00 L 846.70 660.20 L 847.60 660.00 L 848.40 660.20 L 849.00 661.00 Z" fill="#ffffff" fill-rule="nonzero" group-id="5" node-id="395" stroke="none" target-height="25" target-width="24.299988" target-x="835.4" target-y="660"></path><path d="M 500.00 675.10 L 499.30 674.80 L 499.00 674.10 L 499.00 465.10 L 499.20 462.90 L 500.60 459.10 L 503.20 456.00 L 506.70 454.00 L 510.90 453.20 L 805.80 453.20 L 807.90 453.40 L 811.70 454.80 L 813.40 456.00 L 815.90 459.00 L 817.30 462.80 L 817.50 465.00 L 817.50 627.00 L 817.20 627.70 L 816.50 628.00 L 815.80 627.70 L 815.50 627.00 L 815.50 465.00 L 815.40 463.20 L 814.20 460.00 L 812.70 458.10 L 810.70 456.60 L 807.60 455.40 L 805.80 455.20 L 509.10 455.40 L 505.90 456.60 L 503.90 458.10 L 502.30 460.10 L 501.60 461.60 L 501.00 465.10 L 501.00 674.10 L 500.70 674.80 L 500.00 675.10 Z" fill="#232323" fill-rule="nonzero" group-id="5" node-id="397" stroke="none" target-height="221.89996" target-width="318.5" target-x="499" target-y="453.2"></path></g><g node-id="463"><g node-id="480"><g node-id="489"><path d="M 884.30 361.80 L 658.30 361.80 L 711.90 325.40 L 711.90 231.10 L 712.20 228.80 L 713.10 226.80 L 714.40 225.10 L 716.10 223.80 L 718.10 223.00 L 720.30 222.70 L 884.30 222.70 L 886.60 223.00 L 888.60 223.80 L 890.30 225.10 L 891.60 226.80 L 892.40 228.80 L 892.70 231.10 L 892.70 353.50 L 892.40 355.70 L 891.60 357.70 L 890.30 359.40 L 888.60 360.70 L 886.60 361.50 L 884.30 361.80 Z" fill="#ff6666" fill-rule="nonzero" group-id="6,23,32" node-id="406" stroke="none" target-height="139.09999" target-width="234.40002" target-x="658.3" target-y="222.7"></path></g><g clip-path="url(#XMLID_5_)" group-id="6,23,33" node-id="409"><path d="M 666.50 183.70 L 920.40 183.70 L 920.40 248.80 L 666.50 248.80 Z" fill="#ffffff" fill-rule="nonzero" group-id="6,23,33" node-id="411" stroke="none" target-height="65.100006" target-width="253.90002" target-x="666.5" target-y="183.7"></path></g></g><path d="M 835.80 236.50 L 835.60 238.00 L 834.20 240.40 L 831.80 241.80 L 830.30 242.00 L 828.80 241.80 L 826.40 240.40 L 825.00 238.00 L 824.80 236.50 L 825.00 235.00 L 826.40 232.50 L 828.80 231.10 L 830.30 230.90 L 831.80 231.10 L 834.20 232.50 L 835.60 235.00 L 835.80 236.50 Z" fill="#f06361" fill-rule="nonzero" group-id="6" node-id="415" stroke="none" target-height="11.100006" target-width="11" target-x="824.8" target-y="230.9"></path><path d="M 856.10 236.50 L 855.90 238.00 L 854.50 240.40 L 852.10 241.80 L 850.60 242.00 L 847.80 241.20 L 845.80 239.20 L 845.30 238.00 L 845.10 236.50 L 845.80 233.70 L 847.80 231.70 L 850.60 230.90 L 852.10 231.10 L 854.50 232.50 L 855.90 235.00 L 856.10 236.50 Z" fill="#f8bb3f" fill-rule="nonzero" group-id="6" node-id="417" stroke="none" target-height="11.100006" target-width="11" target-x="845.1" target-y="230.9"></path><path d="M 876.40 236.50 L 876.20 238.00 L 874.80 240.40 L 872.40 241.80 L 870.90 242.00 L 868.10 241.20 L 866.10 239.20 L 865.60 238.00 L 865.40 236.50 L 866.10 233.70 L 868.10 231.70 L 870.90 230.90 L 872.40 231.10 L 874.80 232.50 L 876.20 235.00 L 876.40 236.50 Z" fill="#2fc843" fill-rule="nonzero" group-id="6" node-id="419" stroke="none" target-height="11.100006" target-width="11" target-x="865.4" target-y="230.9"></path><path d="M 811.20 303.50 L 856.10 303.50 L 855.90 308.20 L 855.20 312.60 L 854.10 316.90 L 852.60 321.00 L 850.70 324.90 L 848.40 328.60 L 845.80 332.10 L 842.90 335.30 L 839.70 338.20 L 836.30 340.80 L 832.60 343.00 L 828.60 344.90 L 824.50 346.50 L 820.30 347.60 L 815.80 348.20 L 811.20 348.50 L 806.50 348.20 L 802.10 347.60 L 797.90 346.50 L 793.80 344.90 L 789.80 343.00 L 786.10 340.80 L 782.70 338.20 L 779.50 335.30 L 776.50 332.10 L 774.00 328.60 L 771.70 324.90 L 769.80 321.00 L 768.30 316.90 L 767.20 312.60 L 766.50 308.20 L 766.20 303.50 L 766.50 298.90 L 767.20 294.50 L 768.30 290.20 L 769.80 286.10 L 771.70 282.20 L 774.00 278.50 L 776.50 275.00 L 779.50 271.80 L 782.70 268.90 L 786.10 266.30 L 789.80 264.10 L 793.80 262.20 L 797.90 260.60 L 802.10 259.50 L 806.50 258.80 L 811.20 258.60 L 811.20 303.50 Z" fill="#ffffff" fill-rule="nonzero" group-id="6" node-id="421" stroke="none" target-height="89.899994" target-width="89.89996" target-x="766.2" target-y="258.6"></path><path d="M 813.60 301.20 L 813.50 256.30 L 818.20 256.60 L 822.70 257.20 L 826.90 258.30 L 831.00 259.90 L 835.00 261.80 L 838.70 264.00 L 842.10 266.60 L 845.30 269.50 L 848.20 272.70 L 850.80 276.20 L 853.10 279.90 L 855.00 283.80 L 856.50 287.90 L 857.60 292.20 L 858.30 296.60 L 858.50 301.20 L 813.60 301.20 Z" fill="#ffffff" fill-rule="nonzero" group-id="6" node-id="423" stroke="none" target-height="44.900024" target-width="45" target-x="813.5" target-y="256.3"></path><path d="M 728.20 259.80 L 752.20 259.80 L 752.20 283.80 L 728.20 283.80 Z" fill="#ffffff" fill-rule="nonzero" group-id="6" node-id="425" stroke="none" target-height="24" target-width="24" target-x="728.2" target-y="259.8"></path><path d="M 728.20 293.20 L 752.20 293.20 L 752.20 317.10 L 728.20 317.10 Z" fill="#ffffff" fill-rule="nonzero" group-id="6" node-id="427" stroke="none" target-height="23.899994" target-width="24" target-x="728.2" target-y="293.2"></path><path d="M 767.40 330.80 L 729.20 330.80 L 728.50 330.50 L 728.20 329.80 L 728.50 329.10 L 729.20 328.80 L 767.40 328.80 L 768.10 329.10 L 768.40 329.80 L 768.10 330.50 L 767.40 330.80 Z" fill="#ffffff" fill-rule="nonzero" group-id="6" node-id="429" stroke="none" target-height="2" target-width="40.200012" target-x="728.2" target-y="328.8"></path><path d="M 767.40 337.40 L 729.20 337.40 L 728.50 337.10 L 728.20 336.40 L 728.50 335.70 L 729.20 335.40 L 767.40 335.40 L 768.10 335.70 L 768.40 336.40 L 768.10 337.10 L 767.40 337.40 Z" fill="#ffffff" fill-rule="nonzero" group-id="6" node-id="431" stroke="none" target-height="2" target-width="40.200012" target-x="728.2" target-y="335.4"></path><path d="M 746.80 343.90 L 729.20 343.90 L 728.50 343.60 L 728.20 342.90 L 728.50 342.20 L 729.20 341.90 L 746.80 341.90 L 747.50 342.20 L 747.80 342.90 L 747.50 343.60 L 746.80 343.90 Z" fill="#ffffff" fill-rule="nonzero" group-id="6" node-id="433" stroke="none" target-height="2" target-width="19.599976" target-x="728.2" target-y="341.9"></path><path d="M 888.20 355.50 L 734.70 355.50 L 732.10 355.30 L 729.80 354.60 L 727.50 353.50 L 725.50 352.10 L 723.80 350.40 L 722.40 348.40 L 721.40 346.20 L 720.70 343.80 L 720.50 341.20 L 720.50 231.20 L 720.70 228.60 L 721.40 226.20 L 722.40 224.00 L 723.80 222.00 L 725.50 220.30 L 727.50 218.90 L 729.80 217.80 L 732.10 217.20 L 734.70 216.90 L 888.20 216.90 L 890.80 217.20 L 893.10 217.80 L 895.40 218.90 L 897.40 220.30 L 899.10 222.00 L 900.50 224.00 L 901.50 226.20 L 902.20 228.60 L 902.40 231.20 L 902.40 341.20 L 902.20 343.80 L 901.50 346.20 L 900.50 348.40 L 899.10 350.40 L 897.40 352.10 L 895.40 353.50 L 893.10 354.60 L 890.80 355.30 L 888.20 355.50 Z M 734.70 218.90 L 730.50 219.70 L 726.80 221.80 L 724.20 225.00 L 723.20 226.90 L 722.50 231.20 L 722.50 341.20 L 722.70 343.50 L 724.20 347.40 L 726.80 350.60 L 730.50 352.70 L 734.70 353.50 L 888.20 353.50 L 892.40 352.70 L 896.10 350.60 L 898.80 347.40 L 899.70 345.50 L 900.40 341.20 L 900.40 231.20 L 899.70 226.90 L 898.80 225.00 L 896.10 221.80 L 892.40 219.70 L 888.20 218.90 L 734.70 218.90 Z" fill="#232323" fill-rule="nonzero" group-id="6" node-id="435" stroke="none" target-height="138.6" target-width="181.90002" target-x="720.5" target-y="216.9"></path></g><path d="M 382.00 315.00 L 379.70 317.30 L 377.90 317.50 L 377.10 317.00 L 362.60 304.20 L 362.10 303.40 L 362.00 301.70 L 364.70 298.60 L 366.50 298.50 L 367.30 298.90 L 381.80 311.70 L 382.50 313.30 L 382.00 315.00 Z" fill="#ffffff" fill-rule="nonzero" node-id="438" stroke="none" target-height="19" target-width="20.5" target-x="362" target-y="298.5"></path><path d="M 405.90 284.40 L 408.20 286.80 L 408.30 288.50 L 407.80 289.30 L 381.60 317.90 L 380.80 318.50 L 379.10 318.60 L 376.00 315.70 L 375.90 314.00 L 376.40 313.20 L 402.70 284.60 L 404.30 283.80 L 405.90 284.40 Z" fill="#ffffff" fill-rule="nonzero" node-id="440" stroke="none" target-height="34.80002" target-width="32.399994" target-x="375.9" target-y="283.8"></path><path d="M 214.40 351.50 L 184.50 351.50 L 183.80 351.20 L 183.50 350.50 L 183.50 316.80 L 183.80 316.10 L 184.50 315.80 L 185.20 316.10 L 185.50 316.80 L 185.50 349.50 L 214.40 349.50 L 215.10 349.80 L 215.40 350.50 L 215.10 351.20 L 214.40 351.50 Z" fill="#232323" fill-rule="nonzero" node-id="442" stroke="none" target-height="35.700012" target-width="31.899994" target-x="183.5" target-y="315.8"></path><path d="M 851.00 608.70 L 850.20 608.30 L 850.00 607.60 L 851.10 601.60 L 852.90 595.20 L 857.60 582.60 L 863.20 570.90 L 868.70 561.00 L 874.80 551.10 L 875.50 550.60 L 876.20 550.80 L 876.60 551.40 L 876.50 552.20 L 870.70 561.50 L 865.30 571.40 L 859.60 583.10 L 854.80 595.60 L 853.10 601.90 L 852.00 607.80 L 851.70 608.40 L 851.00 608.70 Z" fill="#5a6c1c" fill-rule="nonzero" node-id="444" stroke="none" target-height="58.100037" target-width="26.599976" target-x="850" target-y="550.6"></path><path d="M 829.00 606.70 L 828.40 606.40 L 828.10 605.80 L 827.90 599.40 L 828.10 592.90 L 828.80 586.30 L 830.40 576.50 L 832.60 567.00 L 835.20 557.80 L 841.00 541.60 L 848.20 525.30 L 850.20 521.60 L 850.70 521.10 L 851.50 521.20 L 852.00 521.80 L 851.90 522.50 L 845.60 535.90 L 842.90 542.30 L 837.10 558.30 L 834.50 567.40 L 832.30 576.80 L 830.70 586.40 L 830.10 592.90 L 829.90 599.30 L 830.00 605.60 L 829.80 606.40 L 829.00 606.70 Z" fill="#5a6c1c" fill-rule="nonzero" node-id="446" stroke="none" target-height="85.60004" target-width="24.099976" target-x="827.9" target-y="521.1"></path><path d="M 863.30 622.30 L 862.80 622.20 L 862.40 621.50 L 862.50 620.80 L 866.90 614.40 L 874.70 604.80 L 878.60 600.80 L 885.00 595.20 L 889.50 592.20 L 895.40 589.10 L 896.20 589.20 L 896.70 589.80 L 896.60 590.50 L 890.50 593.90 L 886.20 596.90 L 880.00 602.30 L 876.10 606.30 L 868.50 615.60 L 864.20 621.90 L 863.30 622.30 Z" fill="#5a6c1c" fill-rule="nonzero" node-id="448" stroke="none" target-height="33.200012" target-width="34.299988" target-x="862.4" target-y="589.1"></path><path d="M 211.20 402.40 L 186.70 402.40 L 185.40 402.10 L 184.40 401.40 L 183.70 400.40 L 183.50 399.10 L 183.70 397.90 L 184.40 396.90 L 185.40 396.20 L 186.70 395.90 L 211.20 395.90 L 212.50 396.20 L 213.50 396.90 L 214.20 397.90 L 214.40 399.10 L 214.20 400.40 L 213.50 401.40 L 212.50 402.10 L 211.20 402.40 Z" fill="#ffd840" fill-rule="nonzero" node-id="450" stroke="none" target-height="6.5" target-width="30.899994" target-x="183.5" target-y="395.9"></path><path d="M 211.20 430.00 L 186.70 430.00 L 185.40 429.70 L 184.40 429.00 L 183.70 428.00 L 183.50 426.80 L 183.70 425.50 L 184.40 424.50 L 185.40 423.80 L 186.70 423.60 L 211.20 423.60 L 212.50 423.80 L 213.50 424.50 L 214.20 425.50 L 214.40 426.80 L 214.20 428.00 L 213.50 429.00 L 212.50 429.70 L 211.20 430.00 Z" fill="#ffd840" fill-rule="nonzero" node-id="452" stroke="none" target-height="6.399994" target-width="30.899994" target-x="183.5" target-y="423.6"></path><path d="M 187.80 416.30 L 154.80 416.30 L 153.50 416.00 L 152.50 415.30 L 151.80 414.30 L 151.50 413.10 L 151.80 411.80 L 152.50 410.80 L 153.50 410.10 L 154.80 409.80 L 187.80 409.80 L 189.10 410.10 L 190.10 410.80 L 190.80 411.80 L 191.00 413.10 L 190.80 414.30 L 190.10 415.30 L 189.10 416.00 L 187.80 416.30 Z" fill="#ffd840" fill-rule="nonzero" node-id="454" stroke="none" target-height="6.5" target-width="39.5" target-x="151.5" target-y="409.8"></path><path d="M 242.10 416.30 L 209.10 416.30 L 207.80 416.00 L 206.80 415.30 L 206.10 414.30 L 205.90 413.10 L 206.10 411.80 L 206.80 410.80 L 207.80 410.10 L 209.10 409.80 L 242.10 409.80 L 243.40 410.10 L 244.40 410.80 L 245.10 411.80 L 245.30 413.10 L 245.10 414.30 L 244.40 415.30 L 243.40 416.00 L 242.10 416.30 Z" fill="#ffd840" fill-rule="nonzero" node-id="456" stroke="none" target-height="6.5" target-width="39.40001" target-x="205.9" target-y="409.8"></path></svg>